<?xml version="1.0" encoding="UTF-8" standalone="no"?>
<!-- Uploaded to: SVG Repo, www.svgrepo.com, Generator: SVG Repo Mixer Tools -->
<svg
    viewBox="0 0 600 600"
    version="1.1"
    id="svg9724"
    sodipodi:docname="more-circle.svg"
    inkscape:version="1.2.2 (1:1.2.2+202212051550+b0a8486541)"
    width="600"
    height="600"
    xmlns:inkscape="http://www.inkscape.org/namespaces/inkscape"
    xmlns:sodipodi="http://sodipodi.sourceforge.net/DTD/sodipodi-0.dtd"
    xmlns="http://www.w3.org/2000/svg"
    xmlns:svg="http://www.w3.org/2000/svg">
    <defs
        id="defs9728" />
    <sodipodi:namedview
        id="namedview9726"
        pagecolor="#ffffff"
        bordercolor="#666666"
        borderopacity="1.0"
        inkscape:showpageshadow="2"
        inkscape:pageopacity="0.0"
        inkscape:pagecheckerboard="0"
        inkscape:deskcolor="#d1d1d1"
        showgrid="true"
        inkscape:zoom="0.42059316"
        inkscape:cx="-246.08103"
        inkscape:cy="257.96901"
        inkscape:window-width="1920"
        inkscape:window-height="1009"
        inkscape:window-x="0"
        inkscape:window-y="1080"
        inkscape:window-maximized="1"
        inkscape:current-layer="g10449"
        showguides="true">
        <inkscape:grid
            type="xygrid"
            id="grid9972"
            originx="0"
            originy="0" />
        <sodipodi:guide
            position="-260,300"
            orientation="0,-1"
            id="guide383"
            inkscape:locked="false" />
        <sodipodi:guide
            position="300,520"
            orientation="1,0"
            id="guide385"
            inkscape:locked="false" />
    </sodipodi:namedview>

    <g
        id="g10449"
        transform="matrix(0.95173205,0,0,0.95115787,13.901174,12.168794)"
        style="stroke-width:1.05103">
        <g
            id="path10026"
            inkscape:transform-center-x="-0.59233046"
            inkscape:transform-center-y="-20.347403"
            transform="matrix(1.3807551,0,0,1.2700888,273.60014,263.99768)" />
        <g
            id="g11314"
            transform="matrix(1.5092301,0,0,1.3955555,36.774048,-9.4503933)"
            style="stroke-width:50.6951" />
        <path
            style="color:#000000;fill:#000000;stroke-linecap:round;stroke-linejoin:round;-inkscape-stroke:none;paint-order:stroke fill markers"
            d="m 300.60937,-12.792969 c -173.60599,0 -315.214839,141.724839 -315.214839,315.404299 0,173.67945 141.608849,315.40429 315.214839,315.40429 173.606,0 315.21485,-141.72484 315.21485,-315.40429 0,-173.67946 -141.60885,-315.404299 -315.21485,-315.404299 z m 0,84.082031 c 128.13278,10e-7 231.13086,103.052738 231.13086,231.322268 0,128.26952 -102.99808,231.32226 -231.13086,231.32226 C 172.4766,533.93359 69.476562,430.88085 69.476562,302.61133 69.476563,174.3418 172.4766,71.289062 300.60937,71.289062 Z"
            id="path390" />
        <path
            style="color:#000000;fill:#000000;stroke-linecap:square;stroke-linejoin:round;-inkscape-stroke:none;paint-order:stroke fill markers"
            d="m 153.50781,244.80078 c -31.4389,0 -57.800773,26.39381 -57.800779,57.81055 6e-6,31.41673 26.361879,57.8125 57.800779,57.8125 31.43891,0 57.80273,-26.39577 57.80274,-57.8125 -1e-5,-31.41674 -26.36383,-57.81055 -57.80274,-57.81055 z m 147.10156,0 c -31.4389,0 -57.80272,26.39381 -57.80273,57.81055 1e-5,31.41673 26.36383,57.8125 57.80273,57.8125 31.4389,-2e-5 57.80078,-26.39578 57.80079,-57.8125 -1e-5,-31.41672 -26.36189,-57.81053 -57.80079,-57.81055 z m 147.09961,0 c -31.4389,0 -57.80272,26.39381 -57.80273,57.81055 10e-6,31.41673 26.36383,57.8125 57.80273,57.8125 31.43891,0 57.80273,-26.39577 57.80274,-57.8125 -1e-5,-31.41674 -26.36383,-57.81055 -57.80274,-57.81055 z"
            id="path346"
            sodipodi:nodetypes="sssssssssssssss" />
    </g>
</svg>