<svg xmlns="http://www.w3.org/2000/svg" viewBox="0 0 436.6 109.8" version="1.1" xmlns:xlink="http://www.w3.org/1999/xlink">
  <path fill="#fff" fill-rule="evenodd" stroke="black" stroke-linecap="round" stroke-width="1.25" d="M310.1 58.2q-2.3 7.3-4.6 13.3a118.741 118.741 0 0 1-2.992 7.129 98.638 98.638 0 0 1-1.908 3.921q-2.6 5.05-5.6 9.3-3 4.25-6.6 8.05-4.6 4.8-9.5 7.35a23.087 23.087 0 0 1-5.359 2.026 19.29 19.29 0 0 1-4.441.524q-2.5 0-4.95-.55a25.086 25.086 0 0 1-4.058-1.269 22.895 22.895 0 0 1-.542-.231 20.383 20.383 0 0 1-2.478-1.296 16.871 16.871 0 0 1-1.322-.904 10.252 10.252 0 0 1-1.144-.999q-.779-.798-1.206-1.651a2.042 2.042 0 0 1 .481-1.303q.241-.302.604-.577a4.92 4.92 0 0 1 .315-.22q1.173 1.076 1.964 1.673a12.743 12.743 0 0 0 .036.027 13.428 13.428 0 0 0 .884.612 10.516 10.516 0 0 0 .666.388q.75.4 1.6.5.73.086 1.646.098a23.058 23.058 0 0 0 .304.002q5.7 0 11.15-3.35a34.892 34.892 0 0 0 5.781-4.501 47.629 47.629 0 0 0 4.519-4.999q4.774-6.054 8.725-14.627a99.343 99.343 0 0 0 .125-.273 108.74 108.74 0 0 0 4.429-11.425A135.98 135.98 0 0 0 299 56.8a1154.123 1154.123 0 0 1-1.059 1.627q-.953 1.461-2.141 3.273a71.856 71.856 0 0 1-4.128 5.661 78.336 78.336 0 0 1-.072.089q-2.3 2.85-4.75 5.15a18.824 18.824 0 0 1-1.816 1.514Q283.538 75.2 282.1 75.7a13.095 13.095 0 0 1-2.059-.301 16.104 16.104 0 0 1-1.291-.349q-1.75-.55-3.3-1.55-1.55-1-2.75-2.4t-1.6-3.2a69.357 69.357 0 0 1 .02-1.7q.04-1.631.162-2.788a19.677 19.677 0 0 1 .018-.162q.2-1.75.7-3.85a61.877 61.877 0 0 1 .95-3.516q.716-2.384 1.7-5.084 1.75-4.8 4.1-9.45 2.35-4.65 5.2-8.7a34.131 34.131 0 0 1 2.542-3.209q1.664-1.847 3.408-3.141.544 0 1.272.069a24.862 24.862 0 0 1 .728.081 13.932 13.932 0 0 1 1.692.323 16.659 16.659 0 0 1 .808.227q1.3.4 2.5.95 1.2.55 2.1 1.45-1.093.993-4.752 6.626a239.164 239.164 0 0 0-.048.074 61.03 61.03 0 0 0-2.391 4.051q-2.333 4.291-4.946 10.327A210.872 210.872 0 0 0 286 52.5q-.383.842-.883 2.271a65.633 65.633 0 0 0-.317.929q-.7 2.1-1.35 4.4a89.943 89.943 0 0 0-1.087 4.225 82.469 82.469 0 0 0-.063.275 28.627 28.627 0 0 0-.261 1.272q-.214 1.189-.236 2.034a7.286 7.286 0 0 0-.003.194q0 .738.213 1.135a1.106 1.106 0 0 0 .037.065 5.718 5.718 0 0 0 .151.23q.162.233.299.37a4.566 4.566 0 0 0 1.107-.355q1.091-.49 2.493-1.592a27.185 27.185 0 0 0 1.2-1.003 25.441 25.441 0 0 0 1.953-1.944q2.235-2.456 4.847-6.306a112.715 112.715 0 0 0 4.148-6.706 103.069 103.069 0 0 0 .252-.444q2-3.55 3.95-7.15a994.839 994.839 0 0 1 3.788-6.926A1084.749 1084.749 0 0 1 306.5 37q2.1-3.8 4.5-7.8a12.872 12.872 0 0 1 1.526.095 16.457 16.457 0 0 1 1.274.205q1.5.3 2.9.75 1.377.443 2.416.982a11.225 11.225 0 0 1 .034.018 7.67 7.67 0 0 1 .643.375q.575.377.907.775a418.436 418.436 0 0 0-5.119 11.32 381.09 381.09 0 0 0-.681 1.58q-2.7 6.3-4.8 12.9ZM18 80.1q-2.3 1.2-4.9 1.2-3.2-.4-6.15-1.6a15.801 15.801 0 0 1-1.845-.884q-.892-.506-1.573-1.081A7.294 7.294 0 0 1 2.6 76.8q-.8-4.9-1.3-9t-.8-7.75q-.3-3.65-.4-7Q0 49.7 0 46.3q0-4.5.1-9.5t.25-10.65Q.5 20.5.6 14.05.7 7.6.7 0a6.709 6.709 0 0 1 .831.059q.894.113 2.162.442A34.924 34.924 0 0 1 4.6.75q2.6.75 5.15 1.75 2.55 1 4.55 2.05a15.125 15.125 0 0 1 .738.412q1.077.645 1.373 1.138a.841.841 0 0 1 .089.2 28.54 28.54 0 0 0-.686 2.232q-.292 1.093-.558 2.36a66.245 66.245 0 0 0-.506 2.708q-.75 4.5-1.2 10a228.311 228.311 0 0 0-.518 8.216A265.265 265.265 0 0 0 12.9 35.2q-.2 6.1-.2 12.1 0 4.5.1 8.05a311.727 311.727 0 0 0 .111 3.325q.063 1.628.139 3.075a84.195 84.195 0 0 0 .231 3.243 67.66 67.66 0 0 0 .219 2.057q.3 2.45.7 4.85 2.8-8.5 6.15-17a362.31 362.31 0 0 1 6.457-15.366 331.704 331.704 0 0 1 .443-.984 344.153 344.153 0 0 1 4.418-9.402A287.594 287.594 0 0 1 34.3 23.9q3.5-6.8 6.65-11.85 2.116-3.393 3.939-5.838A44.435 44.435 0 0 1 46.6 4.05Q49.1 1.1 50.7.9q1.031.188 2.194.771a11.758 11.758 0 0 1 .156.079q1.25.65 2.35 1.55t2 2a11.351 11.351 0 0 1 .843 1.169A8.885 8.885 0 0 1 58.8 7.5q-3.626 1.274-7.78 5.909a42.489 42.489 0 0 0-.17.191q-4.25 4.8-8.55 11.55a167.613 167.613 0 0 0-5.794 9.848 197.255 197.255 0 0 0-2.556 4.852 261.961 261.961 0 0 0-6.053 12.688A233.52 233.52 0 0 0 26.65 55.4Q23.4 63 21.1 69.6a156.353 156.353 0 0 0-1.056 3.131Q18.6 77.175 18 80.1Zm191.55-1.6a8.399 8.399 0 0 0 .972.624q1.949 1.088 5.678 2.176a55.661 55.661 0 0 1 .406-3.79 70.203 70.203 0 0 1 .944-5.21q1.05-4.8 2.75-9.6 1.5-4.5 3.6-8.95 2.1-4.45 4.5-8.95 3.1.1 6.35.25 3.25.15 6.1.25 2.85.1 5.15.25 2.3.15 3.7.25a161.897 161.897 0 0 0-.281 1.799A145.417 145.417 0 0 0 248.15 59q-.45 6.4-.45 12.6v2.65q0 1.25.1 2.55a1.629 1.629 0 0 0 .19.289q.4.497 1.36 1.111a11.385 11.385 0 0 0 .168.106q1.198.737 2.832 1.344 1.75.65 3.6 1.1a20.265 20.265 0 0 0 .654.148q1.449.302 2.596.302h.8a.817.817 0 0 0 .175-.019.963.963 0 0 0 .225-.081q-.2-2.5-.2-4.8v-4.5q0-6.3.35-11.4a227.501 227.501 0 0 1 .047-.672q.336-4.694.803-8.428a293.815 293.815 0 0 1 .712-5.115q.947-6.383 2.084-11.98A155.764 155.764 0 0 1 266.7 23.65a164.545 164.545 0 0 1 .621-2.186q1.902-6.513 3.839-11.007A42.292 42.292 0 0 1 273.2 6.3a.881.881 0 0 0-.048-.127q-.234-.507-1.213-1.182a13.015 13.015 0 0 0-.689-.441q-1.75-1.05-4-2.05-2.25-1-4.6-1.7a28.155 28.155 0 0 0-.446-.129Q260.165.1 258.9.1q0 .15-.028.47a20.057 20.057 0 0 1-.022.23 20.33 20.33 0 0 1-.036.332q-.045.387-.114.868-2.178 1.169-4.469 2.775A62.682 62.682 0 0 0 250.1 7.95a80.174 80.174 0 0 0-3.376 2.982 97.877 97.877 0 0 0-5.624 5.718 138.104 138.104 0 0 0-2.527 2.86 160.397 160.397 0 0 0-6.423 7.99q-4.45 5.9-8.35 12.4a59.855 59.855 0 0 0-2.825.557q-1.316.295-2.437.622a25.026 25.026 0 0 0-2.138.721 13.785 13.785 0 0 0-.61.256q-1.352.608-2.085 1.328A2.996 2.996 0 0 0 213 44.4a73.914 73.914 0 0 1 .283.001q1.233.004 3.067.049a236.271 236.271 0 0 1 .275.007q1.948.05 4.375.143-3.1 5.5-5.55 10.3a242.539 242.539 0 0 0-.155.304q-1.156 2.272-2.153 4.352a150.479 150.479 0 0 0-1.892 4.094 91.758 91.758 0 0 0-1.011 2.366q-1.02 2.49-1.639 4.484a35.222 35.222 0 0 0-.22.735q-.448 1.563-.601 2.7A8.056 8.056 0 0 0 207.7 75a4.02 4.02 0 0 0 .741 2.377 5.133 5.133 0 0 0 1.109 1.123ZM79.5 35.4h-5.7q-.5-.6-.9-2.55a23.535 23.535 0 0 1-.244-1.385q-.097-.681-.134-1.279a11.231 11.231 0 0 1-.022-.686q2.6.2 5 .35 2.4.15 4.4.25 1.5-3 3.25-5.95t3.4-5.4q1.328-1.971 2.526-3.457a32.677 32.677 0 0 1 .574-.693q1.447-1.697 2.247-2.198a2.556 2.556 0 0 1 .003-.002 7.517 7.517 0 0 1 .752.041q.781.079 1.798.309a29.712 29.712 0 0 1 2.751.766 32.704 32.704 0 0 1 .399.134q1.6.55 2.9 1.15a9.803 9.803 0 0 1 .668.338q.773.431 1.132.862a123.65 123.65 0 0 0-2.747 3.607q-1.311 1.793-2.403 3.443Q97 26.3 94.5 30.5q2 0 4.05-.1t4.15-.3a3.44 3.44 0 0 1 .593.806 4.291 4.291 0 0 1 .207.444q.3.75.3 1.55-4.168 1.531-9.855 1.905a55.334 55.334 0 0 1-2.045.095q-2.5 4.8-4.45 9.55a111.711 111.711 0 0 0-2.398 6.366 94.75 94.75 0 0 0-.902 2.784 87.279 87.279 0 0 0-1.392 5.049 69.909 69.909 0 0 0-.708 3.251q-.671 3.489-.742 6.337a26.693 26.693 0 0 0-.008.663q0 4.4 3.3 4.9 3-.4 5.7-1.5a19.386 19.386 0 0 0 3.853-2.085 17.524 17.524 0 0 0 .947-.715 7.583 7.583 0 0 1 .298.483q.33.586.402 1.017-.542.813-1.778 1.871a21.339 21.339 0 0 1-.272.229q-1.45 1.2-3.15 2.35a31.792 31.792 0 0 1-2.035 1.272 25.857 25.857 0 0 1-1.265.678 19.055 19.055 0 0 1-.75.356q-.727.325-1.238.461a3.137 3.137 0 0 1-.412.083 14.791 14.791 0 0 1-4.375-.864 16.963 16.963 0 0 1-.625-.236 20.768 20.768 0 0 1-4.276-2.303 19.337 19.337 0 0 1-.274-.197 15.557 15.557 0 0 1-2.245-1.985A13.12 13.12 0 0 1 72 71.35q-1.213-1.727-1.294-3.41a5.004 5.004 0 0 1-.006-.24 22.953 22.953 0 0 1 .077-1.798q.146-1.857.573-4.252Q72 58 73.2 53.7a160.533 160.533 0 0 1 1.839-6.102A188.094 188.094 0 0 1 76 44.7q1.6-4.7 3.5-9.3Zm356.75 1.183a18.17 18.17 0 0 0 .35-2.683 3.893 3.893 0 0 0-.1-.334q-.388-1.114-1.6-2.716a31.883 31.883 0 0 0-.737-.936A36.596 36.596 0 0 0 431.7 27.2a44.762 44.762 0 0 0-.677-.663 39.649 39.649 0 0 0-2.973-2.587 21.379 21.379 0 0 0-.65-.491q-.919-.665-1.622-.999a4.129 4.129 0 0 0-.678-.26 14.09 14.09 0 0 0-1.327.376A15.566 15.566 0 0 0 420.1 24.4q-2.4 1.6-4.2 3.85-1.8 2.25-2.9 4.9a15.716 15.716 0 0 0-.133.331 13.755 13.755 0 0 0-.967 5.019q0 2.1.5 4.25t1.05 4.4a127.873 127.873 0 0 1 .034.141A139.24 139.24 0 0 1 414.5 51.8q.5 2.4.5 4.9a27.325 27.325 0 0 0-1.09.096 23.794 23.794 0 0 0-7.06 1.854q-3.75 1.65-6.5 4.3t-4.35 6.1q-1.6 3.45-1.6 7.25a7.683 7.683 0 0 0 .486 1.258 9.532 9.532 0 0 0 .914 1.492q1 1.35 2.35 2.45t2.85 1.8a9.712 9.712 0 0 0 1.157.455 7.493 7.493 0 0 0 1.743.345 24.356 24.356 0 0 0 4.496-.854 17.167 17.167 0 0 0 8.154-5.046 17.337 17.337 0 0 0 3.917-7.692 25.183 25.183 0 0 0 .633-5.808 56.923 56.923 0 0 0 0-.058q-.001-1.161-.05-1.942-.05-.8-.05-1.6a3.91 3.91 0 0 1 .015-.359q.033-.353.135-.591a.658.658 0 0 1 .09-.149q.144-.182.447-.349A3.457 3.457 0 0 1 422 59.5a6.785 6.785 0 0 1 .266-.107q.671-.255 1.784-.543a52.564 52.564 0 0 1 .685-.172q1.204-.295 2.965-.678a1.18 1.18 0 0 0 .261-.412q.073-.187.107-.422a3.195 3.195 0 0 0 .032-.466 6.687 6.687 0 0 0-.001-.085q-.004-.387-.055-.59A.617.617 0 0 0 428 55.9q-1.6 0-3.25.05a154.147 154.147 0 0 0-.221.007q-1.568.05-3.529.143a.239.239 0 0 1-.003-.006q-.079-.169-.093-.847a15.806 15.806 0 0 1-.004-.347q0-9.7 2.1-14.7t6.1-5a2.531 2.531 0 0 1 .021 0q.666.006 1.165.362a2.32 2.32 0 0 1 .564.588 3.601 3.601 0 0 1 .539 1.268 4.994 4.994 0 0 1 .111 1.082 3.242 3.242 0 0 1-.014.292q-.023.253-.084.536a6.548 6.548 0 0 1-.152.572q-.25.8-.55 1.6-.3.8-.55 1.45a7.192 7.192 0 0 0-.106.293q-.094.279-.126.473a1.121 1.121 0 0 0-.018.184q.121.848.572 1.219a1.301 1.301 0 0 0 .728.281q.6 0 1.256-.619a5.097 5.097 0 0 0 .444-.481q.506-.619.981-1.412a17.305 17.305 0 0 0 .719-1.338 18.456 18.456 0 0 0 .652-1.52 22.993 22.993 0 0 0 .698-2.18 21.508 21.508 0 0 0 .3-1.267ZM146.55 64.05a184.416 184.416 0 0 0-.113.43q-1.16 4.452-1.637 7.22.206.55.743 1.147a7.457 7.457 0 0 0 .557.553 15.567 15.567 0 0 0 .582.498 18.002 18.002 0 0 0 1.668 1.202 20.385 20.385 0 0 0 .479.297 17.931 17.931 0 0 0 2.021 1.053 11.803 11.803 0 0 0 .658.267q.838.31 1.492.383a165.257 165.257 0 0 1 .711-3.13q1.176-4.942 2.439-8.77a48.936 48.936 0 0 1 1.456-3.873 38.677 38.677 0 0 1 2.544-4.977q2.35-3.85 5.65-7a49.698 49.698 0 0 1 .444-.419q1.578-1.469 3.457-2.97A82.953 82.953 0 0 1 173.8 42.9q1 2.9 3.1 5.35a18.125 18.125 0 0 0 .198.227A15.915 15.915 0 0 0 181.7 52.1q1.5-1.5 2.75-3.2.977-1.328 1.251-1.985a1.473 1.473 0 0 0 .099-.315 6.212 6.212 0 0 1-.21-.387Q184.5 44.029 184.5 40a24.944 24.944 0 0 1 .176-2.947A28.073 28.073 0 0 1 186.3 30.5q-.344-.55-1.066-.935a5.133 5.133 0 0 0-.734-.315q-1.3-.45-2.7-.45-1.008 0-1.609.226a1.683 1.683 0 0 0-.491.274 81.965 81.965 0 0 1-.909 1.334 73.328 73.328 0 0 1-6.841 8.466q-4.15 4.4-9.55 9.2 1.313-4 2.605-7.102a54.609 54.609 0 0 1 1.545-3.398 41.2 41.2 0 0 1 .928-1.751A35.634 35.634 0 0 1 171.3 30.5q-.377-.44-.952-.9a12.207 12.207 0 0 0-.748-.55 18.778 18.778 0 0 0-1.02-.647 23.954 23.954 0 0 0-1.48-.803q-1.4-.7-2.9-1.2a18.693 18.693 0 0 0-.928-.283 15.766 15.766 0 0 0-1.972-.417q-1.2 1.2-2.2 2.95-.687 1.203-1.517 3.044a75.626 75.626 0 0 0-.783 1.806q-1.8 4.3-3.7 9.7-1.9 5.4-3.6 10.75a237.316 237.316 0 0 0-1.212 3.928 194.482 194.482 0 0 0-1.738 6.172Zm174.2 0a184.416 184.416 0 0 0-.113.43q-1.16 4.452-1.637 7.22.206.55.743 1.147a7.457 7.457 0 0 0 .557.553 15.567 15.567 0 0 0 .582.498 18.002 18.002 0 0 0 1.668 1.202 20.385 20.385 0 0 0 .479.297 17.931 17.931 0 0 0 2.021 1.053 11.803 11.803 0 0 0 .658.267q.838.31 1.492.383a165.257 165.257 0 0 1 .711-3.13q1.176-4.942 2.439-8.77a48.936 48.936 0 0 1 1.456-3.873 38.677 38.677 0 0 1 2.544-4.977q2.35-3.85 5.65-7a49.698 49.698 0 0 1 .444-.419q1.578-1.469 3.457-2.97A82.953 82.953 0 0 1 348 42.9q1 2.9 3.1 5.35a18.125 18.125 0 0 0 .198.227A15.915 15.915 0 0 0 355.9 52.1q1.5-1.5 2.75-3.2.977-1.328 1.251-1.985A1.473 1.473 0 0 0 360 46.6a6.212 6.212 0 0 1-.21-.387Q358.7 44.029 358.7 40a24.944 24.944 0 0 1 .176-2.947A28.073 28.073 0 0 1 360.5 30.5q-.344-.55-1.066-.935a5.133 5.133 0 0 0-.734-.315q-1.3-.45-2.7-.45-1.008 0-1.609.226a1.683 1.683 0 0 0-.491.274 81.965 81.965 0 0 1-.909 1.334 73.328 73.328 0 0 1-6.841 8.466q-4.15 4.4-9.55 9.2 1.313-4 2.605-7.102a54.609 54.609 0 0 1 1.545-3.398 41.2 41.2 0 0 1 .928-1.751A35.634 35.634 0 0 1 345.5 30.5q-.377-.44-.952-.9a12.207 12.207 0 0 0-.748-.55 18.778 18.778 0 0 0-1.02-.647 23.954 23.954 0 0 0-1.48-.803q-1.4-.7-2.9-1.2a18.693 18.693 0 0 0-.928-.283 15.766 15.766 0 0 0-1.972-.417q-1.2 1.2-2.2 2.95-.687 1.203-1.517 3.044A75.626 75.626 0 0 0 331 33.5q-1.8 4.3-3.7 9.7-1.9 5.4-3.6 10.75a237.316 237.316 0 0 0-1.212 3.928 194.482 194.482 0 0 0-1.738 6.172Zm76.148-26.745a43.04 43.04 0 0 0 .602-5.005 23.041 23.041 0 0 0-1.276-1.496q-1.37-1.469-2.807-2.434a10.485 10.485 0 0 0-4.517-1.77q-3.3 0-6.65 1.5a25.873 25.873 0 0 0-2.279 1.161 30.237 30.237 0 0 0-4.221 2.939 36.08 36.08 0 0 0-1.55 1.356 40.826 40.826 0 0 0-4.35 4.744q-2.75 3.5-4.8 7.45t-3.2 8.2q-1.15 4.25-1.15 8.35 0 6 3.85 10.25a14.727 14.727 0 0 0 5.914 3.932A20.815 20.815 0 0 0 375.3 77.6a19.696 19.696 0 0 0 1.944-.555q2.086-.709 4.271-1.933a37.539 37.539 0 0 0 3.935-2.562 43.234 43.234 0 0 0 3.932-3.288A51.615 51.615 0 0 0 395.3 62.6a14.502 14.502 0 0 0-.094-.107q-.335-.375-.734-.771a24.53 24.53 0 0 0-.872-.822 121.316 121.316 0 0 1-.025.027q-.796.844-1.702 1.775a204.735 204.735 0 0 1-1.923 1.948q-2.05 2.05-4.4 3.8-2.35 1.75-4.95 2.95a14.375 14.375 0 0 1-.203.092A12.474 12.474 0 0 1 375.3 72.6a4.45 4.45 0 0 1-.836-.075A3.174 3.174 0 0 1 373 71.85a4.608 4.608 0 0 1-.688-.713 5.357 5.357 0 0 1-.712-1.237 9.764 9.764 0 0 1-.231-.612 10.99 10.99 0 0 1-.469-1.988q-.2-1.4-.2-2.7a19.322 19.322 0 0 1 .001-.185 17.363 17.363 0 0 1 .049-1.165q.05-.65.05-1.25a121.662 121.662 0 0 0 .402-.158Q377.351 59.415 382 56.8a43.15 43.15 0 0 0 3.429-2.139 34.218 34.218 0 0 0 4.721-3.911q3.35-3.35 5.15-7.8 1.027-2.538 1.598-5.645ZM114.9 77.2q-5.7-.6-9.1-5-3.4-4.4-3.4-11.2a29.425 29.425 0 0 1 .62-5.905 35.041 35.041 0 0 1 .58-2.395q1.2-4.3 3.4-8.35t5.2-7.65q3-3.6 6.5-6.2 3.869-2.884 7.391-3.739A12.301 12.301 0 0 1 129 26.4q3.2 1.7 6.3 7.1a8.6 8.6 0 0 0 .468-.012q.225-.012.426-.037a5.169 5.169 0 0 0 .006-.001q.397-.05.892-.05a10.873 10.873 0 0 1 .008 0 4.366 4.366 0 0 1 4.174 2.732q1.126 2.335 1.126 6.668 0 6.3-2.05 11.95-2.05 5.65-5.7 10.25-3.65 4.6-8.7 7.75-5.05 3.15-11.05 4.45ZM45.25 64.75a31.345 31.345 0 0 0-.081.819Q45.1 66.388 45.1 67a8.574 8.574 0 0 0 .098 1.316A6.517 6.517 0 0 0 46.1 70.8a12.887 12.887 0 0 0 .751 1.079 10.272 10.272 0 0 0 1.499 1.571 13.397 13.397 0 0 0 .156.129q1.169.952 2.294 1.421a19.001 19.001 0 0 0 .302.123q.951.377 1.298.377a.457.457 0 0 0 .426-.247q.054-.097.086-.232a1.685 1.685 0 0 0 .038-.271 11.074 11.074 0 0 0 .008-.125Q53 73.858 53 72.2a14.367 14.367 0 0 1 .091-1.072q.112-.928.347-1.971A29.165 29.165 0 0 1 54 67.05q.9-2.95 2-5.75a195.254 195.254 0 0 0 .788-2.033A165.852 165.852 0 0 0 58.35 55q1.05-3 2.3-5.8 1.25-2.8 2.8-5.4a30.791 30.791 0 0 1 1.383-2.112A37.813 37.813 0 0 1 67.3 38.6a17.577 17.577 0 0 0-.545-.748A14.908 14.908 0 0 0 62.5 34.05q-1.969-1.16-3.394-1.702A8.827 8.827 0 0 0 58 32a9.598 9.598 0 0 0-1.888 1.192A11.189 11.189 0 0 0 54.05 35.4q-1.65 2.3-2.8 4.75a43.926 43.926 0 0 0-.92 2.096 34.607 34.607 0 0 0-.93 2.554q-.525 1.65-.769 2.625A12.569 12.569 0 0 0 48.5 48a619.021 619.021 0 0 0-.591 2.686q-.278 1.279-.522 2.431a316.063 316.063 0 0 0-.537 2.583 330.121 330.121 0 0 0-.382 1.907q-.393 1.996-.668 3.543-.275 1.547-.432 2.668a33.429 33.429 0 0 0-.118.932ZM120 45.7a44.919 44.919 0 0 0-2.63 4.002 50.526 50.526 0 0 0-.57.998q-1.5 2.7-2.6 5.45a40.022 40.022 0 0 0-1.18 3.359 33.293 33.293 0 0 0-.52 1.941q-.525 2.232-.591 4.042a14.039 14.039 0 0 0-.009.508q0 2.4.8 4.6.56 1.539 1.217 2.148a1.499 1.499 0 0 0 .583.352q4.5-1 8.25-3.75a27.015 27.015 0 0 0 6.24-6.469 30.559 30.559 0 0 0 .26-.381 32.95 32.95 0 0 0 3.564-7.078 38.569 38.569 0 0 0 .736-2.222q1.55-5.2 1.55-11.1a36.686 36.686 0 0 0-.029-1.518q-.058-1.387-.229-2.359A9.861 9.861 0 0 0 134.8 38a8.548 8.548 0 0 0-.416-1.441 6.701 6.701 0 0 0-.584-1.159q-4.4 1.3-7.85 4.2a42.965 42.965 0 0 0-4.295 4.129A36.856 36.856 0 0 0 120 45.7Zm135.5-27.259a129.462 129.462 0 0 0 .25-1.091q.55-2.45 1.05-5.15a14.486 14.486 0 0 0-2.037.932q-1.654.906-3.513 2.368-3.002 2.363-6.198 5.839a73.28 73.28 0 0 0-.102.111 99.167 99.167 0 0 0-3.895 4.533 123.381 123.381 0 0 0-2.705 3.467 126.589 126.589 0 0 0-6.353 9.294 137.776 137.776 0 0 0-.097.156 247.254 247.254 0 0 1 8.38-.546q5.036-.248 10.72-.354.8-4.2 1.75-8.35.95-4.15 2.05-8.45.306-1.072.7-2.759ZM390.6 35.6a12.673 12.673 0 0 0-2.925.82q-1.233.503-2.505 1.276a21.244 21.244 0 0 0-.17.104 21.669 21.669 0 0 0-3.572 2.799 27.102 27.102 0 0 0-1.878 2.001 35.274 35.274 0 0 0-3.012 4.141A43.511 43.511 0 0 0 374.9 49.6q-2.1 4-3.3 8.6a48.515 48.515 0 0 0 8.348-5.243 40.312 40.312 0 0 0 4.952-4.607q5.3-5.85 5.7-12.75ZM64.224 23.215a3.569 3.569 0 0 0-.024.385 1.606 1.606 0 0 0 .147.655q.217.489.753.995.9.85 2.1 1.05.4-.8 1.8-2.7 1.4-1.9 3.1-4.05 1.7-2.15 3.5-4.1 1.8-1.95 2.9-3.05-.5-.687-1.273-1.434a18.992 18.992 0 0 0-1.027-.916 22.278 22.278 0 0 0-.38-.309A24.433 24.433 0 0 0 72.9 7.75a25.673 25.673 0 0 0-1.12-.617 21.711 21.711 0 0 0-2.43-1.083 13.888 13.888 0 0 0-1.001-.332Q67.24 5.4 66.4 5.4q-.6 1.6-1.2 3.55a54.289 54.289 0 0 0-.322 1.085A46.667 46.667 0 0 0 64.2 12.7q-.4 1.8-.65 3.35a32.277 32.277 0 0 0-.046.294q-.133.878-.18 1.53a8.93 8.93 0 0 0-.024.626q0 .8.35 1.8t.85 1.5a17.483 17.483 0 0 0-.12.509q-.115.526-.156.906ZM403.6 79.5q2.4-1 4.55-2.9t3.75-4.3q1.6-2.4 2.55-5.1a16.702 16.702 0 0 0 .848-3.583 14.592 14.592 0 0 0 .102-1.717q-2 .3-4.4 1.85-2.4 1.55-4.5 3.7a26.466 26.466 0 0 0-2.455 2.886A22.505 22.505 0 0 0 403 71.9q-.886 1.455-1.211 2.67a5.15 5.15 0 0 0-.189 1.33 4.077 4.077 0 0 0 1.424 3.143 5.928 5.928 0 0 0 .576.457Z" font-size="12" vector-effect="non-scaling-stroke"/>
</svg>
